<svg width="133" height="49" viewBox="0 0 133 49" fill="none" xmlns="http://www.w3.org/2000/svg">
<path d="M1.456 21.484L2.856 21.204L3.892 25.264C4.37733 25.4507 4.872 25.6 5.376 25.712C5.89867 25.8053 6.42133 25.852 6.944 25.852C8.13867 25.852 9.11867 25.5813 9.884 25.04C10.668 24.4987 11.06 23.5373 11.06 22.156C11.06 21.428 10.8827 20.8307 10.528 20.364C10.192 19.8787 9.744 19.4773 9.184 19.16C8.624 18.824 8.008 18.5253 7.336 18.264C6.68267 17.984 6.02 17.6947 5.348 17.396C4.676 17.0787 4.06 16.7053 3.5 16.276C2.94 15.8467 2.48267 15.3147 2.128 14.68C1.792 14.0267 1.624 13.224 1.624 12.272C1.624 11.32 1.82 10.5173 2.212 9.864C2.62267 9.192 3.15467 8.65067 3.808 8.24C4.48 7.81067 5.236 7.50267 6.076 7.316C6.916 7.12933 7.76533 7.036 8.624 7.036C9.65067 7.036 10.584 7.148 11.424 7.372C12.264 7.57733 12.8707 7.86667 13.244 8.24V12.972L11.844 13.252L10.78 9.052C10.388 8.90267 9.996 8.78133 9.604 8.688C9.23067 8.59467 8.85733 8.548 8.484 8.548C7.40133 8.548 6.47733 8.86533 5.712 9.5C4.94667 10.1347 4.564 11.068 4.564 12.3C4.564 13.028 4.788 13.6347 5.236 14.12C5.70267 14.5867 6.29067 14.9973 7 15.352C7.70933 15.688 8.46533 16.0333 9.268 16.388C10.0893 16.7427 10.8547 17.1627 11.564 17.648C12.2733 18.1147 12.852 18.712 13.3 19.44C13.7667 20.1493 14 21.0547 14 22.156C14 23.1827 13.804 24.0413 13.412 24.732C13.0387 25.404 12.5253 25.936 11.872 26.328C11.2187 26.72 10.472 27 9.632 27.168C8.81067 27.336 7.952 27.42 7.056 27.42C6.25333 27.42 5.46933 27.3547 4.704 27.224C3.93867 27.112 3.26667 26.9627 2.688 26.776C2.10933 26.5707 1.69867 26.3747 1.456 26.188V21.484ZM19.3218 14.54C19.9564 13.7747 20.7311 13.196 21.6458 12.804C22.5604 12.3933 23.4004 12.188 24.1658 12.188C25.5098 12.188 26.5458 12.5987 27.2738 13.42C28.0204 14.2413 28.3938 15.548 28.3938 17.34L28.4218 25.264L30.6618 25.74L30.3818 27H23.7458V26.16L25.9018 25.32V17.9C25.9018 16.9667 25.7991 16.2573 25.5938 15.772C25.4071 15.268 25.1084 14.932 24.6978 14.764C24.3058 14.5773 23.8111 14.484 23.2138 14.484C22.4671 14.484 21.7204 14.6147 20.9738 14.876C20.2458 15.1373 19.6951 15.4827 19.3218 15.912V25.264L21.4218 25.656L21.1418 27H14.3378V26.16L16.8018 25.32V8.268L14.4778 7.82L14.3378 6.672L19.3218 6V14.54ZM32.2676 8.156C32.7529 7.33467 33.4063 6.69067 34.2276 6.224C35.0489 6.65333 35.6743 7.27867 36.1036 8.1C35.6369 8.90267 34.9836 9.54667 34.1436 10.032C33.3223 9.60267 32.6969 8.97733 32.2676 8.156ZM35.7116 25.264L37.8116 25.656L37.5316 27H30.7276V26.16L33.1916 25.32V14.484L30.9236 14.064L30.7836 12.916L35.7116 12.244V25.264ZM46.4791 13.784L46.7591 12.44H52.1071V13.28L50.0911 14.12L44.9671 27H43.3151L38.1911 14.064L36.1751 13.7L36.4551 12.44H42.8951V13.28L40.8791 13.98L44.6591 23.612L48.4671 14.064L46.4791 13.784ZM57.9263 21.484L59.3263 21.204L60.3623 25.264C60.8476 25.4507 61.3423 25.6 61.8463 25.712C62.369 25.8053 62.8916 25.852 63.4143 25.852C64.609 25.852 65.589 25.5813 66.3543 25.04C67.1383 24.4987 67.5303 23.5373 67.5303 22.156C67.5303 21.428 67.353 20.8307 66.9983 20.364C66.6623 19.8787 66.2143 19.4773 65.6543 19.16C65.0943 18.824 64.4783 18.5253 63.8063 18.264C63.153 17.984 62.4903 17.6947 61.8183 17.396C61.1463 17.0787 60.5303 16.7053 59.9703 16.276C59.4103 15.8467 58.953 15.3147 58.5983 14.68C58.2623 14.0267 58.0943 13.224 58.0943 12.272C58.0943 11.32 58.2903 10.5173 58.6823 9.864C59.093 9.192 59.625 8.65067 60.2783 8.24C60.9503 7.81067 61.7063 7.50267 62.5463 7.316C63.3863 7.12933 64.2356 7.036 65.0943 7.036C66.121 7.036 67.0543 7.148 67.8943 7.372C68.7343 7.57733 69.341 7.86667 69.7143 8.24V12.972L68.3143 13.252L67.2503 9.052C66.8583 8.90267 66.4663 8.78133 66.0743 8.688C65.701 8.59467 65.3276 8.548 64.9543 8.548C63.8716 8.548 62.9476 8.86533 62.1823 9.5C61.417 10.1347 61.0343 11.068 61.0343 12.3C61.0343 13.028 61.2583 13.6347 61.7063 14.12C62.173 14.5867 62.761 14.9973 63.4703 15.352C64.1796 15.688 64.9356 16.0333 65.7383 16.388C66.5596 16.7427 67.325 17.1627 68.0343 17.648C68.7436 18.1147 69.3223 18.712 69.7703 19.44C70.237 20.1493 70.4703 21.0547 70.4703 22.156C70.4703 23.1827 70.2743 24.0413 69.8823 24.732C69.509 25.404 68.9956 25.936 68.3423 26.328C67.689 26.72 66.9423 27 66.1023 27.168C65.281 27.336 64.4223 27.42 63.5263 27.42C62.7236 27.42 61.9396 27.3547 61.1743 27.224C60.409 27.112 59.737 26.9627 59.1583 26.776C58.5796 26.5707 58.169 26.3747 57.9263 26.188V21.484ZM75.7921 14.54C76.4267 13.7747 77.2014 13.196 78.1161 12.804C79.0307 12.3933 79.8707 12.188 80.6361 12.188C81.9801 12.188 83.0161 12.5987 83.7441 13.42C84.4907 14.2413 84.8641 15.548 84.8641 17.34L84.8921 25.264L87.1321 25.74L86.8521 27H80.2161V26.16L82.3721 25.32V17.9C82.3721 16.9667 82.2694 16.2573 82.0641 15.772C81.8774 15.268 81.5787 14.932 81.1681 14.764C80.7761 14.5773 80.2814 14.484 79.6841 14.484C78.9374 14.484 78.1907 14.6147 77.4441 14.876C76.7161 15.1373 76.1654 15.4827 75.7921 15.912V25.264L77.8921 25.656L77.6121 27H70.8081V26.16L73.2721 25.32V8.268L70.9481 7.82L70.8081 6.672L75.7921 6V14.54ZM96.0739 27V24.732C95.7006 25.18 95.2246 25.5907 94.6459 25.964C94.0859 26.3373 93.4886 26.6453 92.8539 26.888C92.2379 27.112 91.6592 27.224 91.1179 27.224C90.1286 27.224 89.2606 26.9067 88.5139 26.272C87.7672 25.6373 87.3939 24.732 87.3939 23.556C87.3939 22.6227 87.6272 21.8667 88.0939 21.288C88.5792 20.6907 89.4286 20.2333 90.6419 19.916C91.5566 19.6733 92.4339 19.4773 93.2739 19.328C94.1326 19.16 95.0659 19.02 96.0739 18.908V16.612C96.0739 15.5667 95.7939 14.8293 95.2339 14.4C94.6739 13.952 94.0019 13.728 93.2179 13.728C92.7886 13.728 92.3499 13.756 91.9019 13.812C91.4539 13.868 91.0152 13.9707 90.5859 14.12L89.8019 17.312L88.3459 17.06V13.42C89.0739 13.1027 89.8486 12.8227 90.6699 12.58C91.5099 12.3187 92.4059 12.188 93.3579 12.188C94.3286 12.188 95.2059 12.328 95.9899 12.608C96.7926 12.8693 97.4272 13.3267 97.8939 13.98C98.3606 14.6333 98.5939 15.52 98.5939 16.64V25.236L100.61 25.712L100.33 27H96.0739ZM90.1939 23.332C90.1939 24.2093 90.3992 24.788 90.8099 25.068C91.2392 25.3293 91.7339 25.46 92.2939 25.46C92.7419 25.46 93.2179 25.348 93.7219 25.124C94.2259 24.9 94.6832 24.62 95.0939 24.284C95.5232 23.9293 95.8499 23.5933 96.0739 23.276V20.084C95.4766 20.1587 94.8792 20.2427 94.2819 20.336C93.6846 20.4107 93.0872 20.532 92.4899 20.7C91.6126 20.9427 91.0059 21.2973 90.6699 21.764C90.3526 22.2307 90.1939 22.7533 90.1939 23.332ZM104.697 25.264L106.797 25.656L106.517 27H99.7126V26.16L102.177 25.32V8.24L99.9086 7.82L99.7686 6.672L104.697 6V19.664L110.241 14.092L108.449 13.784L108.729 12.44H114.917V13.28L112.201 14.288L108.785 17.704L113.629 25.292L115.645 25.656L115.365 27H111.725L106.993 19.552L104.697 21.792V25.264ZM124.938 25.068C124.509 25.74 123.884 26.2907 123.062 26.72C122.241 27.1307 121.41 27.336 120.57 27.336C119.749 27.336 119.105 27.168 118.638 26.832C118.19 26.4773 117.873 26.0013 117.686 25.404C117.5 24.8067 117.406 24.1347 117.406 23.388V14.008H115.194V13.028L117.546 12.188L118.526 9.08H119.926V12.44H124.406V13.98H119.926V22.716C119.926 23.7427 120.02 24.4427 120.206 24.816C120.393 25.1893 120.841 25.376 121.55 25.376C121.98 25.376 122.418 25.3013 122.866 25.152C123.314 25.0027 123.828 24.7507 124.406 24.396L124.938 25.068ZM126.421 8.156C126.906 7.33467 127.56 6.69067 128.381 6.224C129.202 6.65333 129.828 7.27867 130.257 8.1C129.79 8.90267 129.137 9.54667 128.297 10.032C127.476 9.60267 126.85 8.97733 126.421 8.156ZM129.865 25.264L131.965 25.656L131.685 27H124.881V26.16L127.345 25.32V14.484L125.077 14.064L124.937 12.916L129.865 12.244V25.264Z" fill="black"/>
<path opacity="0.9" d="M10.395 46.117C9.381 46.117 8.52733 45.9307 7.834 45.558C7.14933 45.1767 6.63367 44.635 6.287 43.933C5.94033 43.231 5.767 42.3947 5.767 41.424C5.767 40.4533 5.949 39.617 6.313 38.915C6.68567 38.213 7.21433 37.6713 7.899 37.29C8.59233 36.9087 9.42433 36.718 10.395 36.718C11.0623 36.718 11.643 36.8133 12.137 37.004C12.631 37.186 13.073 37.4547 13.463 37.81L12.982 38.863C12.7047 38.629 12.436 38.4427 12.176 38.304C11.916 38.1653 11.6473 38.0657 11.37 38.005C11.0927 37.9357 10.7677 37.901 10.395 37.901C9.34633 37.901 8.549 38.2087 8.003 38.824C7.457 39.4393 7.184 40.3103 7.184 41.437C7.184 42.581 7.444 43.452 7.964 44.05C8.49267 44.648 9.32033 44.947 10.447 44.947C10.837 44.947 11.2227 44.9123 11.604 44.843C11.9853 44.765 12.3537 44.6523 12.709 44.505L12.449 45.142V42.139H10.187V41.125H13.58V45.454C13.1813 45.6533 12.6917 45.8137 12.111 45.935C11.539 46.0563 10.967 46.117 10.395 46.117ZM34.4886 46V36.835H38.3626C39.3419 36.835 40.1002 37.069 40.6376 37.537C41.1749 37.9963 41.4436 38.642 41.4436 39.474C41.4436 40.02 41.3222 40.488 41.0796 40.878C40.8369 41.268 40.4946 41.567 40.0526 41.775C39.6106 41.9743 39.0906 42.074 38.4926 42.074L38.7006 41.866H39.0516C39.4069 41.866 39.7232 41.957 40.0006 42.139C40.2866 42.321 40.5206 42.6113 40.7026 43.01L42.0156 46H40.5336L39.2336 42.997C39.1036 42.6417 38.8999 42.412 38.6226 42.308C38.3539 42.204 38.0202 42.152 37.6216 42.152H35.8406V46H34.4886ZM35.8406 41.125H38.1416C38.7916 41.125 39.2812 40.9863 39.6106 40.709C39.9486 40.4317 40.1176 40.033 40.1176 39.513C40.1176 38.9843 39.9486 38.5857 39.6106 38.317C39.2812 38.0483 38.7916 37.914 38.1416 37.914H35.8406V41.125ZM62.0275 41.411C62.0275 40.449 62.1965 39.617 62.5345 38.915C62.8725 38.213 63.3622 37.6713 64.0035 37.29C64.6535 36.9087 65.4249 36.718 66.3175 36.718C67.2015 36.718 67.9642 36.9087 68.6055 37.29C69.2469 37.6713 69.7409 38.213 70.0875 38.915C70.4429 39.617 70.6205 40.4447 70.6205 41.398C70.6205 42.36 70.4429 43.1963 70.0875 43.907C69.7409 44.609 69.2425 45.155 68.5925 45.545C67.9512 45.9263 67.1929 46.117 66.3175 46.117C65.4249 46.117 64.6579 45.9263 64.0165 45.545C63.3752 45.155 62.8812 44.609 62.5345 43.907C62.1965 43.1963 62.0275 42.3643 62.0275 41.411ZM63.4445 41.411C63.4445 42.5203 63.6872 43.387 64.1725 44.011C64.6579 44.635 65.3729 44.947 66.3175 44.947C67.2362 44.947 67.9469 44.6393 68.4495 44.024C68.9522 43.4 69.2035 42.529 69.2035 41.411C69.2035 40.293 68.9522 39.4263 68.4495 38.811C67.9555 38.1957 67.2449 37.888 66.3175 37.888C65.3729 37.888 64.6579 38.1957 64.1725 38.811C63.6872 39.4263 63.4445 40.293 63.4445 41.411ZM95.0384 46.117C93.7644 46.117 92.8154 45.7963 92.1914 45.155C91.5761 44.5137 91.2684 43.5647 91.2684 42.308V36.835H92.6204V42.282C92.6204 43.166 92.8111 43.8333 93.1924 44.284C93.5824 44.726 94.1977 44.947 95.0384 44.947C95.8357 44.947 96.4381 44.726 96.8454 44.284C97.2527 43.8333 97.4564 43.166 97.4564 42.282V36.835H98.7824V42.308C98.7824 43.5647 98.4661 44.5137 97.8334 45.155C97.2007 45.7963 96.2691 46.117 95.0384 46.117ZM119.73 46V36.835H123.617C124.596 36.835 125.346 37.0733 125.866 37.55C126.395 38.018 126.659 38.668 126.659 39.5C126.659 40.332 126.395 40.9863 125.866 41.463C125.346 41.9397 124.596 42.178 123.617 42.178H121.082V46H119.73ZM121.082 41.099H123.474C124.089 41.099 124.553 40.9603 124.865 40.683C125.177 40.4057 125.333 40.0113 125.333 39.5C125.333 38.9973 125.177 38.6073 124.865 38.33C124.553 38.0527 124.089 37.914 123.474 37.914H121.082V41.099Z" fill="black"/>
</svg>
