<svg width="630" height="234" viewBox="0 0 630 234" fill="none" xmlns="http://www.w3.org/2000/svg">
<path d="M6.89755 102.597L13.5291 101.26L18.4365 120.649C20.7354 121.54 23.0786 122.253 25.466 122.788C27.9418 123.233 30.4175 123.457 32.8933 123.457C38.5523 123.457 43.1944 122.164 46.8197 119.579C50.5333 116.994 52.3902 112.403 52.3902 105.806C52.3902 102.33 51.5503 99.4772 49.8702 97.2485C48.2786 94.931 46.1565 93.0141 43.5039 91.4988C40.8512 89.8942 37.9333 88.4678 34.7502 87.2199C31.6555 85.8828 28.5165 84.5012 25.3333 83.0748C22.1502 81.5595 19.2323 79.7763 16.5797 77.7262C13.927 75.6761 11.7607 73.1355 10.0807 70.1045C8.48913 66.9847 7.69334 63.1514 7.69334 58.6051C7.69334 54.0588 8.62176 50.2255 10.4786 47.1056C12.4239 43.8965 14.9439 41.3114 18.0386 39.3502C21.2218 37.2999 24.8028 35.8291 28.7818 34.9376C32.7607 34.0462 36.7838 33.6005 40.8512 33.6005C45.7144 33.6005 50.1354 34.1354 54.1144 35.2051C58.0933 36.1856 60.9672 37.5674 62.7354 39.3502V61.9479L56.1039 63.2851L51.0639 43.2279C49.207 42.5148 47.3502 41.9353 45.4933 41.4896C43.7249 41.0439 41.9565 40.8211 40.1881 40.8211C35.0596 40.8211 30.6828 42.3365 27.0576 45.3674C23.4323 48.3984 21.6197 52.8554 21.6197 58.7388C21.6197 62.2154 22.6807 65.1127 24.8028 67.4302C27.0134 69.6589 29.7986 71.6198 33.1586 73.3136C36.5186 74.9182 40.0996 76.5672 43.9018 78.2611C47.7921 79.955 51.4177 81.9607 54.7775 84.2782C58.1374 86.507 60.8786 89.3594 63.0007 92.8359C65.2114 96.2232 66.3165 100.547 66.3165 105.806C66.3165 110.709 65.3881 114.809 63.5312 118.108C61.763 121.317 59.3311 123.858 56.2365 125.73C53.1419 127.602 49.6049 128.939 45.626 129.741C41.7355 130.543 37.6681 130.945 33.4239 130.945C29.6217 130.945 25.9081 130.633 22.2828 130.009C18.6576 129.474 15.4744 128.761 12.7333 127.869C9.99227 126.889 8.04704 125.953 6.89755 125.061V102.597ZM91.525 69.4359C94.531 65.7812 98.2007 63.0176 102.533 61.1456C106.866 59.1843 110.845 58.2039 114.47 58.2039C120.837 58.2039 125.744 60.1652 129.192 64.0874C132.729 68.0095 134.498 74.2496 134.498 82.8074L134.63 120.649L145.241 122.922L143.914 128.939H112.481V124.927L122.693 120.916V85.4816C122.693 81.0247 122.207 77.6369 121.234 75.3194C120.35 72.9125 118.935 71.3079 116.99 70.5056C115.133 69.6141 112.79 69.1685 109.961 69.1685C106.424 69.1685 102.887 69.7927 99.3503 71.0405C95.9019 72.2883 93.2933 73.9378 91.525 75.9879V120.649L101.472 122.521L100.146 128.939H67.9166V124.927L79.5882 120.916V39.4839L68.5798 37.3445L67.9166 31.8622L91.525 28.6531V69.4359ZM152.847 38.9491C155.146 35.0268 158.241 31.9514 162.131 29.7228C166.022 31.7731 168.984 34.7594 171.018 38.6816C168.807 42.5148 165.712 45.5902 161.734 47.9079C157.843 45.8577 154.881 42.8713 152.847 38.9491ZM169.161 120.649L179.108 122.521L177.782 128.939H145.552V124.927L157.224 120.916V69.1685L146.481 67.1628L145.818 61.6805L169.161 58.4714V120.649ZM220.165 65.8257L221.491 59.4074H246.824V63.4188L237.274 67.4302L213.003 128.939H205.177L180.906 67.1628L171.356 65.4245L172.683 59.4074H203.188V63.4188L193.639 66.7616L211.544 112.759L229.582 67.1628L220.165 65.8257ZM274.388 102.597L281.02 101.26L285.927 120.649C288.226 121.54 290.569 122.253 292.957 122.788C295.433 123.233 297.908 123.457 300.384 123.457C306.043 123.457 310.685 122.164 314.311 119.579C318.024 116.994 319.881 112.403 319.881 105.806C319.881 102.33 319.041 99.4772 317.361 97.2485C315.769 94.931 313.647 93.0141 310.995 91.4988C308.342 89.8942 305.424 88.4678 302.241 87.2199C299.146 85.8828 296.007 84.5012 292.824 83.0748C289.641 81.5595 286.723 79.7763 284.071 77.7262C281.418 75.6761 279.252 73.1355 277.572 70.1045C275.98 66.9847 275.184 63.1514 275.184 58.6051C275.184 54.0588 276.113 50.2255 277.969 47.1056C279.915 43.8965 282.435 41.3114 285.529 39.3502C288.713 37.2999 292.294 35.8291 296.273 34.9376C300.252 34.0462 304.275 33.6005 308.342 33.6005C313.205 33.6005 317.626 34.1354 321.605 35.2051C325.584 36.1856 328.458 37.5674 330.226 39.3502V61.9479L323.595 63.2851L318.555 43.2279C316.698 42.5148 314.841 41.9353 312.984 41.4896C311.216 41.0439 309.447 40.8211 307.679 40.8211C302.55 40.8211 298.174 42.3365 294.548 45.3674C290.923 48.3984 289.111 52.8554 289.111 58.7388C289.111 62.2154 290.172 65.1127 292.294 67.4302C294.504 69.6589 297.29 71.6198 300.649 73.3136C304.009 74.9182 307.59 76.5672 311.393 78.2611C315.283 79.955 318.909 81.9607 322.268 84.2782C325.628 86.507 328.369 89.3594 330.492 92.8359C332.702 96.2232 333.807 100.547 333.807 105.806C333.807 110.709 332.879 114.809 331.022 118.108C329.254 121.317 326.822 123.858 323.727 125.73C320.633 127.602 317.096 128.939 313.117 129.741C309.226 130.543 305.159 130.945 300.915 130.945C297.112 130.945 293.399 130.633 289.774 130.009C286.149 129.474 282.965 128.761 280.224 127.869C277.483 126.889 275.538 125.953 274.388 125.061V102.597ZM359.016 69.4359C362.022 65.7812 365.691 63.0176 370.024 61.1456C374.357 59.1843 378.336 58.2039 381.961 58.2039C388.327 58.2039 393.235 60.1652 396.683 64.0874C400.22 68.0095 401.988 74.2496 401.988 82.8074L402.121 120.649L412.732 122.922L411.405 128.939H379.972V124.927L390.184 120.916V85.4816C390.184 81.0247 389.698 77.6369 388.725 75.3194C387.841 72.9125 386.426 71.3079 384.481 70.5056C382.624 69.6141 380.281 69.1685 377.452 69.1685C373.915 69.1685 370.378 69.7927 366.841 71.0405C363.393 72.2883 360.784 73.9378 359.016 75.9879V120.649L368.963 122.521L367.637 128.939H335.407V124.927L347.079 120.916V39.4839L336.071 37.3445L335.407 31.8622L359.016 28.6531V69.4359ZM455.088 128.939V118.108C453.319 120.247 451.065 122.209 448.323 123.991C445.671 125.774 442.841 127.245 439.835 128.404C436.917 129.474 434.176 130.009 431.612 130.009C426.926 130.009 422.814 128.493 419.277 125.462C415.74 122.431 413.972 118.108 413.972 112.492C413.972 108.035 415.077 104.425 417.288 101.661C419.586 98.8087 423.61 96.6243 429.357 95.1091C433.69 93.9501 437.845 93.0141 441.824 92.3011C445.892 91.4988 450.313 90.8302 455.088 90.2954V79.3308C455.088 74.3389 453.761 70.8175 451.109 68.7674C448.456 66.6279 445.273 65.5582 441.559 65.5582C439.526 65.5582 437.448 65.6919 435.325 65.9594C433.203 66.2268 431.125 66.7172 429.092 67.4302L425.378 82.6737L418.481 81.4702V64.0874C421.93 62.5721 425.599 61.2349 429.49 60.0759C433.469 58.8281 437.713 58.2039 442.222 58.2039C446.82 58.2039 450.976 58.8725 454.69 60.2096C458.492 61.4575 461.498 63.6418 463.709 66.7616C465.919 69.8815 467.024 74.1159 467.024 79.4645V120.515L476.574 122.788L475.248 128.939H455.088ZM427.235 111.422C427.235 115.612 428.207 118.375 430.153 119.713C432.186 120.96 434.53 121.585 437.182 121.585C439.304 121.585 441.559 121.05 443.947 119.98C446.334 118.91 448.5 117.573 450.445 115.969C452.479 114.275 454.026 112.67 455.088 111.155V95.9114C452.258 96.2681 449.428 96.6692 446.599 97.1148C443.77 97.4715 440.94 98.0508 438.111 98.8531C433.955 100.012 431.081 101.705 429.49 103.934C427.987 106.163 427.235 108.659 427.235 111.422ZM495.934 120.649L505.881 122.521L504.555 128.939H472.324V124.927L483.997 120.916V39.3502L473.252 37.3445L472.589 31.8622L495.934 28.6531V93.9056L522.195 67.2965L513.706 65.8257L515.033 59.4074H544.344V63.4188L531.479 68.2325L515.298 84.5457L538.243 120.782L547.793 122.521L546.466 128.939H529.224L506.81 93.3708L495.934 104.068V120.649ZM591.812 119.713C589.78 122.922 586.82 125.552 582.926 127.602C579.037 129.563 575.101 130.543 571.122 130.543C567.233 130.543 564.182 129.741 561.97 128.137C559.848 126.443 558.346 124.169 557.461 121.317C556.58 118.465 556.134 115.256 556.134 111.69V66.8954H545.656V62.2154L556.797 58.2039L561.44 43.3616H568.071V59.4074H589.292V66.7616H568.071V108.481C568.071 113.384 568.516 116.726 569.398 118.509C570.283 120.292 572.405 121.183 575.764 121.183C577.801 121.183 579.875 120.827 581.997 120.114C584.12 119.401 586.554 118.197 589.292 116.503L591.812 119.713ZM598.837 38.9491C601.134 35.0268 604.232 31.9514 608.121 29.7228C612.01 31.7731 614.975 34.7594 617.008 38.6816C614.795 42.5148 611.702 45.5902 607.723 47.9079C603.834 45.8577 600.869 42.8713 598.837 38.9491ZM615.151 120.649L625.098 122.521L623.772 128.939H591.542V124.927L603.214 120.916V69.1685L592.471 67.1628L591.807 61.6805L615.151 58.4714V120.649Z" fill="white"/>
<path opacity="0.9" d="M49.2395 220.232C44.4363 220.232 40.3926 219.343 37.1084 217.563C33.8652 215.742 31.4226 213.155 29.7805 209.802C28.1384 206.45 27.3174 202.456 27.3174 197.821C27.3174 193.185 28.1795 189.191 29.9037 185.839C31.6689 182.487 34.1731 179.9 37.4163 178.079C40.7005 176.258 44.6415 175.347 49.2395 175.347C52.4004 175.347 55.151 175.802 57.491 176.713C59.831 177.582 61.9247 178.865 63.7721 180.562L61.4937 185.591C60.1801 184.473 58.9073 183.584 57.6758 182.921C56.4442 182.259 55.1714 181.783 53.8579 181.493C52.5444 181.162 51.0049 180.997 49.2395 180.997C44.2721 180.997 40.4952 182.466 37.9089 185.404C35.3226 188.343 34.0295 192.502 34.0295 197.883C34.0295 203.346 35.261 207.505 37.7242 210.361C40.2284 213.217 44.1489 214.645 49.4858 214.645C51.3331 214.645 53.1601 214.479 54.9663 214.148C56.7725 213.776 58.5175 213.238 60.2005 212.534L58.9689 215.576V201.235H48.2542V196.393H64.3263V217.066C62.4377 218.018 60.1186 218.784 57.3679 219.363C54.6584 219.942 51.9489 220.232 49.2395 220.232ZM163.367 219.673V175.906H181.718C186.356 175.906 189.948 177.023 192.494 179.258C195.039 181.452 196.312 184.535 196.312 188.508C196.312 191.116 195.737 193.351 194.588 195.213C193.438 197.076 191.817 198.504 189.723 199.497C187.629 200.449 185.166 200.925 182.333 200.925L183.319 199.932H184.981C186.664 199.932 188.162 200.366 189.476 201.235C190.831 202.104 191.94 203.491 192.802 205.395L199.021 219.673H192.001L185.843 205.333C185.228 203.636 184.263 202.539 182.949 202.042C181.676 201.546 180.096 201.297 178.208 201.297H169.771V219.673H163.367ZM169.771 196.393H180.671C183.75 196.393 186.069 195.73 187.629 194.406C189.23 193.082 190.031 191.178 190.031 188.695C190.031 186.17 189.23 184.266 187.629 182.983C186.069 181.7 183.75 181.059 180.671 181.059H169.771V196.393ZM293.814 197.759C293.814 193.165 294.615 189.191 296.216 185.839C297.817 182.487 300.137 179.9 303.174 178.079C306.253 176.258 309.907 175.347 314.136 175.347C318.323 175.347 321.936 176.258 324.973 178.079C328.012 179.9 330.352 182.487 331.993 185.839C333.677 189.191 334.518 193.144 334.518 197.697C334.518 202.291 333.677 206.284 331.993 209.678C330.352 213.031 327.991 215.638 324.912 217.501C321.874 219.321 318.282 220.232 314.136 220.232C309.907 220.232 306.274 219.321 303.236 217.501C300.198 215.638 297.858 213.031 296.216 209.678C294.615 206.284 293.814 202.311 293.814 197.759ZM300.527 197.759C300.527 203.056 301.676 207.195 303.975 210.175C306.274 213.155 309.661 214.645 314.136 214.645C318.487 214.645 321.854 213.175 324.234 210.237C326.616 207.257 327.806 203.098 327.806 197.759C327.806 192.42 326.616 188.281 324.234 185.342C321.894 182.404 318.528 180.935 314.136 180.935C309.661 180.935 306.274 182.404 303.975 185.342C301.676 188.281 300.527 192.42 300.527 197.759ZM450.182 220.232C444.147 220.232 439.652 218.701 436.696 215.638C433.782 212.576 432.324 208.044 432.324 202.042V175.906H438.728V201.918C438.728 206.14 439.632 209.326 441.438 211.479C443.285 213.589 446.2 214.645 450.182 214.645C453.959 214.645 456.812 213.589 458.741 211.479C460.671 209.326 461.636 206.14 461.636 201.918V175.906H467.917V202.042C467.917 208.044 466.418 212.576 463.421 215.638C460.424 218.701 456.012 220.232 450.182 220.232ZM567.142 219.673V175.906H585.554C590.192 175.906 593.744 177.044 596.207 179.32C598.713 181.555 599.964 184.659 599.964 188.633C599.964 192.606 598.713 195.73 596.207 198.007C593.744 200.283 590.192 201.421 585.554 201.421H573.546V219.673H567.142ZM573.546 196.269H584.877C587.79 196.269 589.988 195.606 591.466 194.282C592.944 192.958 593.683 191.074 593.683 188.633C593.683 186.232 592.944 184.37 591.466 183.045C589.988 181.721 587.79 181.059 584.877 181.059H573.546V196.269Z" fill="white"/>
</svg>
